<?xml version="1.0" encoding="UTF-8" standalone="no"?>
<!-- Created with Inkscape (http://www.inkscape.org/) -->

<svg
   width="512"
   height="512"
   viewBox="0 0 135.46667 135.46667"
   version="1.1"
   id="svg1"
   inkscape:version="1.3.2 (091e20e, 2023-11-25)"
   sodipodi:docname="artworkmonochrome.svg"
   xmlns:inkscape="http://www.inkscape.org/namespaces/inkscape"
   xmlns:sodipodi="http://sodipodi.sourceforge.net/DTD/sodipodi-0.dtd"
   xmlns="http://www.w3.org/2000/svg"
   xmlns:svg="http://www.w3.org/2000/svg">
  <sodipodi:namedview
     id="namedview1"
     pagecolor="#ffffff"
     bordercolor="#000000"
     borderopacity="0.25"
     inkscape:showpageshadow="2"
     inkscape:pageopacity="0.0"
     inkscape:pagecheckerboard="0"
     inkscape:deskcolor="#d1d1d1"
     inkscape:document-units="mm"
     inkscape:zoom="0.65312309"
     inkscape:cx="199.8092"
     inkscape:cy="445.55154"
     inkscape:window-width="1712"
     inkscape:window-height="959"
     inkscape:window-x="225"
     inkscape:window-y="25"
     inkscape:window-maximized="0"
     inkscape:current-layer="layer1" />
  <defs
     id="defs1" />
  <g
     inkscape:label="Layer 1"
     inkscape:groupmode="layer"
     id="layer1">
    <g
       id="g20"
       transform="matrix(0.67238707,0,0,0.74999921,12.81934,-2.7011067)"
       style="fill:#000000">
      <path
         id="path19"
         style="fill:#000000;stroke-width:0;paint-order:markers stroke fill"
         d="m 33.101855,95.483061 -26.9833654,12.395629 9.3875404,-0.004 c 6.588077,31.2748 34.141893,53.68843 66.102942,53.7714 30.489528,-0.0789 56.953328,-20.48642 65.046678,-49.51481 l -16.6486,7.59127 -19.15283,-8.79843 c -6.01312,10.34724 -17.106392,16.84995 -29.245248,16.8553 -13.267694,-0.0395 -25.290399,-7.82286 -30.757296,-19.91196 H 33.17782 l 27.05933,-0.0114 z" />
      <path
         id="path20"
         style="fill:#000000;stroke-width:0;paint-order:markers stroke fill"
         d="M 81.608972,26.179281 C 51.116895,26.258139 24.651217,46.669025 16.560229,75.701322 l 16.541626,-7.599019 19.336805,8.817033 c 5.995587,-10.331799 17.05539,-16.837417 29.170312,-16.873389 13.29529,0.0063 25.357088,7.791423 30.838428,19.904212 l -9.34362,-0.0041 26.98337,12.395625 27.13478,-12.372888 -27.05933,-0.01137 h 17.71158 C 141.27621,48.620418 113.63298,26.186338 81.608972,26.179281 Z" />
    </g>
  </g>
</svg>
